<svg width="96" height="96" xmlns="http://www.w3.org/2000/svg" xmlns:xlink="http://www.w3.org/1999/xlink" xml:space="preserve" overflow="hidden"><g transform="translate(-520 -157)"><path d="M549.5 193.711C548.235 194.263 547.656 195.737 548.209 197.002 548.761 198.268 550.235 198.846 551.5 198.294 552.765 197.741 553.344 196.268 552.791 195.002 552.539 194.424 552.078 193.963 551.5 193.711L551.5 187.008 547.5 187.008 547.5 183.288C548.765 182.736 549.344 181.262 548.791 179.997 548.239 178.731 546.765 178.153 545.5 178.705 544.235 179.258 543.656 180.731 544.209 181.997 544.461 182.575 544.922 183.036 545.5 183.288L545.5 187.007 540.318 187C540.126 187.535 539.983 188.07 539.833 188.633 539.801 188.755 539.767 188.878 539.733 189L549.5 189.009Z"/><path d="M601 208.014 594.1 196.014 594.1 195.514C594.688 178.918 581.711 164.988 565.115 164.401 565.11 164.4 565.105 164.4 565.1 164.4 564.728 164.387 564.358 164.381 563.989 164.38 547.83 164.366 534.567 177.161 534 193.31L534 195.51C533.961 204.974 538.321 213.919 545.8 219.718L545.8 245.025 577.4 245.025 577.4 233.025 582.3 233.025C588.812 233.012 594.087 227.737 594.1 221.225L594.1 215.025 598.5 215.025C601.1 214.716 603.4 211.715 601 208.014ZM599.828 211.914C599.545 212.494 599 212.903 598.364 213.014L592.1 213.014 592.1 221.214C592.092 226.623 587.709 231.006 582.3 231.014L575.4 231.014 575.4 243.014 547.8 243.014 547.8 218.736 547.024 218.136C540.023 212.726 535.946 204.359 536 195.511L536 193.347C536.512 178.272 548.908 166.331 563.991 166.382 564.336 166.382 564.682 166.388 565.03 166.401 580.517 166.961 592.629 179.951 592.105 195.439L592.105 196.545 592.371 197.008 599.271 209.008 599.298 209.054 599.327 209.099C599.977 209.884 600.168 210.951 599.832 211.913Z"/><path d="M578.5 178.5C578.208 178.503 577.92 178.557 577.647 178.66L574.5 175.828 574.5 171.4C573.84 171.137 573.168 170.873 572.5 170.647L572.5 176.679 576.2 180.012C575.654 181.28 576.24 182.751 577.508 183.296 578.777 183.842 580.247 183.256 580.793 181.988 581.339 180.72 580.753 179.249 579.484 178.704 579.174 178.57 578.839 178.501 578.5 178.5Z"/><path d="M567.5 198.5C567.174 198.5 566.851 198.565 566.55 198.69L559.5 191.616 559.5 180.006 565.5 180.006 565.5 184.706C564.235 185.258 563.656 186.732 564.209 187.997 564.761 189.263 566.235 189.841 567.5 189.289 568.765 188.736 569.344 187.263 568.791 185.997 568.539 185.419 568.078 184.958 567.5 184.706L567.5 178.005 559.5 178.005 559.5 175.287C560.765 174.735 561.344 173.261 560.791 171.996 560.239 170.73 558.765 170.152 557.5 170.704 556.235 171.257 555.656 172.73 556.209 173.996 556.461 174.574 556.922 175.035 557.5 175.287L557.5 192.407 560.8 195.816 555.5 201.116 555.5 206.01 549.469 206.01 545.613 201.481C546.215 200.196 545.662 198.666 544.376 198.063 543.091 197.461 541.561 198.015 540.959 199.3 540.356 200.585 540.91 202.115 542.195 202.718 542.787 202.995 543.461 203.036 544.082 202.834L548.532 208.011 555.5 208.011 555.5 209.711C554.235 210.263 553.656 211.737 554.209 213.002 554.761 214.268 556.235 214.846 557.5 214.294 558.765 213.741 559.344 212.268 558.791 211.002 558.539 210.424 558.078 209.963 557.5 209.711L557.5 201.905 562.2 197.205 565.149 200.175C564.697 201.476 565.385 202.897 566.686 203.35 567.987 203.802 569.408 203.114 569.86 201.813 570.313 200.512 569.625 199.091 568.324 198.638 568.059 198.546 567.78 198.499 567.5 198.5Z"/></g></svg>