<svg width="96" height="96" xmlns="http://www.w3.org/2000/svg" xmlns:xlink="http://www.w3.org/1999/xlink" xml:space="preserve" overflow="hidden"><g transform="translate(-276 -332)"><path d="M284 339.586 284 421 365.414 421ZM286 405 291 405 291 403 286 403 286 391 291 391 291 389 286 389 286 377 291 377 291 375 286 375 286 363 291 363 291 361 286 361 286 344.414 360.586 419 341 419 341 414 339 414 339 419 327 419 327 414 325 414 325 419 313 419 313 414 311 414 311 419 299 419 299 414 297 414 297 419 286 419Z"/><path d="M301 376.086 301 404 328.914 404ZM303 380.914 324.086 402 303 402Z"/></g></svg>