<svg width="96" height="96" xmlns="http://www.w3.org/2000/svg" xmlns:xlink="http://www.w3.org/1999/xlink" xml:space="preserve" overflow="hidden"><g transform="translate(-452 -332)"><path d="M500 342C479 342 462 359 462 380 462 401 479 418 500 418 521 418 538 401 538 380 538 359 521 342 500 342ZM466 380C466 371.1 469.4 363.1 475 357 475.9 357.5 476.8 358.3 477 359L477 365.3C477 365.7 477.1 366.2 477.4 366.5L484 375 484.5 374.5C484.8 374.2 484.9 373.7 484.7 373.3L483.5 371.3C483 370.5 483.8 369.5 484.7 369.8 485 369.9 485.2 370.1 485.3 370.3L488.6 376.8C489 377.5 489.6 378.1 490.3 378.3L494.7 379.8C495 379.9 495.2 380.1 495.3 380.3L495.6 380.8C495.9 381.5 496.6 381.9 497.4 381.9L498.6 381.9C498.9 381.9 499.2 382.1 499.4 382.3L500.7 384.2C501 384.6 501.4 384.9 501.9 385L504 385.5C504.6 385.6 504.9 386.3 504.7 386.8 504.7 386.8 503.1 388.4 503.1 390.7 503.1 397.3 509.1 399.2 509.1 400.7 509.1 404.8 508.5 410.5 508.2 412.7 505.6 413.3 502.9 413.7 500.1 413.7 481.3 414 466 398.7 466 380ZM512.8 411.5C515 409.6 518.7 406.4 520 405 521.7 403.1 522 400 522 400 522 400 529 398.1 529 393 529 389.5 522 388 522 388 520.8 384.1 514.9 382 510 382 508.9 382 505 384 505 384L503 383 503 380C503 379.4 502.6 379 502 379L500 379 500 376C500 375.4 499.6 375 499 375L498 375 496.9 375.7C495.9 376.4 494.5 376 494 374.9 494 374.9 493 373.5 493 372.9 493 368.6 498 368.9 498 368.9L500.2 368.9C500.7 368.9 501.1 369.2 501.2 369.7L501.8 372.2C501.9 372.6 502.3 373 502.8 373L503.2 373C503.7 373 504.1 372.7 504.2 372.2L504.9 368.5C505 368.2 505.1 367.9 505.3 367.6L508.1 364.1C508.7 363.4 509.5 363 510.4 363L513 363C513.6 363 514 362.6 514 362L514 361 513.7 360.7C513.1 360.1 513.5 359 514.4 359L515 359C515.6 359 516 359.4 516 360 516 360.6 516.4 361 517 361L518 361 518.6 358.4C518.8 357.5 518.4 356.7 517.7 356.2L509.2 351.1C509.1 351 508.9 351 508.7 351L507 351C505.9 351 505 351.9 505 353L505 354C505 354.6 504.6 355 504 355L503 355 502 354 499 354C498.4 354 498 353.6 498 353L498 350.5C498 350.2 498.1 349.9 498.4 349.7L504.8 347 505.8 348.7C506 348.9 506.2 349 506.5 349L509 349C509.6 349 510 348.6 510 348L510 347.5C523.9 351.8 534 364.7 534 380 534 394.2 525.2 406.4 512.8 411.5Z"/><path d="M512.3 375.8 507.5 374.2C507.1 374.1 506.8 374.1 506.4 374.2L503 375C502.7 375.2 502.6 375.6 503 376L507.6 376C507.9 376 508.1 376 508.3 376.1L511.8 377.5C512.4 377.7 513 377.3 513 376.7 513 376.3 512.7 375.9 512.3 375.8Z"/></g></svg>