<svg width="96" height="96" xmlns="http://www.w3.org/2000/svg" xmlns:xlink="http://www.w3.org/1999/xlink" xml:space="preserve" overflow="hidden"><g transform="translate(-716 -332)"><path d="M777.109 367.765 772.218 367.765C771.721 367.765 771.318 368.168 771.318 368.665 771.318 369.162 771.721 369.565 772.218 369.565L777.109 369.565C777.606 369.565 778.009 369.162 778.009 368.665 778.009 368.168 777.606 367.765 777.109 367.765Z"/><path d="M774.668 372.627C775.669 372.587 776.485 371.813 776.579 370.816L772.668 370.816C772.766 371.846 773.633 372.632 774.668 372.627Z"/><path d="M797.624 343.473C797.654 342.137 796.594 341.03 795.258 341 795.257 341 795.256 341 795.255 341L754.112 341C752.774 341.012 751.697 342.102 751.702 343.44L751.702 375.572C751.686 376.903 752.751 377.995 754.082 378.013L761.693 378.013 761.693 388.106 770.863 378.013 795.163 378.013C796.5 378.007 797.579 376.919 797.574 375.582L797.574 375.572ZM795.575 375.59C795.577 375.82 795.394 376.008 795.164 376.013L769.978 376.013 769.383 376.668 763.693 382.93 763.693 376.013 754.107 376.013C753.877 376.007 753.695 375.815 753.701 375.585 753.702 375.581 753.702 375.576 753.702 375.572L753.702 343.435C753.699 343.204 753.881 343.012 754.112 343.003L795.212 343.003C795.323 343.004 795.43 343.051 795.506 343.132 795.591 343.223 795.633 343.346 795.622 343.47Z"/><path d="M748.032 400.359C752.822 400.361 756.706 396.479 756.708 391.689 756.71 386.899 752.828 383.015 748.038 383.013 743.248 383.011 739.364 386.893 739.362 391.683 739.362 391.684 739.362 391.686 739.362 391.687 739.362 396.476 743.243 400.358 748.032 400.359ZM748.032 385.014C751.717 385.012 754.706 387.999 754.708 391.684 754.71 395.369 751.723 398.358 748.038 398.36 744.353 398.362 741.364 395.375 741.362 391.69 741.362 391.689 741.362 391.688 741.362 391.687 741.365 388.004 744.349 385.019 748.032 385.014Z"/><path d="M774.942 351.005C774.847 351.005 774.753 351.005 774.659 351.005 770.599 351.008 767.269 354.22 767.119 358.277L767.119 358.597C767.148 359.488 767.33 360.367 767.655 361.197 767.957 361.981 768.397 362.704 768.955 363.332 769.736 364.311 770.394 365.382 770.915 366.52 770.93 366.526 770.945 366.529 770.961 366.529 770.977 366.529 770.992 366.526 771.007 366.52L778.32 366.52C778.36 366.519 778.396 366.495 778.413 366.458 778.941 365.328 779.602 364.264 780.382 363.291 780.936 362.66 781.376 361.938 781.682 361.156 782.001 360.321 782.179 359.439 782.208 358.546L782.208 358.277C782.065 354.324 778.895 351.152 774.942 351.005ZM780.508 358.511C780.483 359.202 780.345 359.884 780.099 360.531 779.865 361.129 779.529 361.682 779.105 362.164L779.08 362.193 779.056 362.223C778.406 363.034 777.831 363.901 777.337 364.815L771.966 364.815C771.483 363.917 770.92 363.064 770.284 362.267L770.256 362.232 770.226 362.198C769.801 361.72 769.466 361.168 769.238 360.57 768.986 359.93 768.844 359.251 768.819 358.563L768.819 358.306C768.94 355.17 771.521 352.692 774.66 352.7 774.733 352.7 774.806 352.7 774.88 352.7 777.924 352.824 780.368 355.256 780.508 358.3Z"/><path d="M763.111 407.983C760.698 406.111 757.905 404.789 754.928 404.108 752.69 403.436 750.372 403.064 748.036 403L747.987 403C745.685 402.998 743.397 403.354 741.205 404.054 738.26 404.845 735.481 406.158 733 407.931 731.75 408.888 731.012 410.369 731 411.943L731 420.024 733 420.024 733 411.948C733.005 411.007 733.441 410.12 734.183 409.541 736.477 407.908 739.045 406.699 741.765 405.972 743.769 405.329 745.86 405.001 747.965 405L748.006 405C750.181 405.063 752.338 405.413 754.421 406.042 757.15 406.662 759.711 407.872 761.921 409.589 762.696 410.138 763.143 411.04 763.111 411.989L763.111 420.024 765.111 420.024 765.111 412.015C765.157 410.422 764.407 408.91 763.111 407.983Z"/><path d="M774.663 349.389C775.16 349.389 775.563 348.986 775.563 348.489L775.563 346.489C775.563 345.992 775.16 345.589 774.663 345.589 774.166 345.589 773.763 345.992 773.763 346.489L773.763 348.489C773.763 348.986 774.166 349.389 774.663 349.389Z"/><path d="M767.279 351.547C767.618 351.911 768.187 351.931 768.551 351.592 768.915 351.253 768.935 350.684 768.596 350.32 768.581 350.304 768.567 350.289 768.551 350.275L767.137 348.861C766.773 348.522 766.204 348.542 765.865 348.906 765.543 349.251 765.543 349.787 765.865 350.133Z"/><path d="M765 356.1 763 356.1C762.503 356.1 762.1 356.503 762.1 357 762.1 357.497 762.503 357.9 763 357.9L765 357.9C765.497 357.9 765.9 357.497 765.9 357 765.9 356.503 765.497 356.1 765 356.1Z"/><path d="M781.5 351.811C781.739 351.811 781.967 351.716 782.136 351.547L783.55 350.133C783.889 349.769 783.869 349.2 783.505 348.861 783.159 348.539 782.624 348.539 782.278 348.861L780.864 350.275C780.513 350.627 780.513 351.197 780.865 351.548 781.033 351.716 781.262 351.811 781.5 351.811Z"/><path d="M786.412 356.1 784.412 356.1C783.915 356.1 783.512 356.503 783.512 357 783.512 357.497 783.915 357.9 784.412 357.9L786.412 357.9C786.909 357.9 787.312 357.497 787.312 357 787.312 356.503 786.909 356.1 786.412 356.1Z"/></g></svg>