<svg width="96" height="96" xmlns="http://www.w3.org/2000/svg" xmlns:xlink="http://www.w3.org/1999/xlink" xml:space="preserve" overflow="hidden"><g transform="translate(-188 -332)"><path d="M267 345 254 345 254 343.8C253.995 343.272 253.779 342.768 253.4 342.4L250 339C250.03 337.373 248.736 336.03 247.109 336 247.073 335.999 247.036 335.999 247 336L225 336C223.373 335.97 222.03 337.264 222 338.891 221.999 338.927 221.999 338.964 222 339L218.6 342.4C218.221 342.768 218.005 343.272 218 343.8L218 345 205 345C203.343 345 202 346.343 202 348 202 349.657 203.343 351 205 351L218 351 218 352.2C218.005 352.728 218.221 353.232 218.6 353.6L222 357 222 366C222.003 367.103 222.897 367.997 224 368L224 376 228 380 228 400 226 402 226 406 231 406 231 410 233 410 233 420 236 424 239 420 239 410 241 410 241 406 246 406 246 402 244 400 244 380 248 376 248 368C249.103 367.997 249.997 367.103 250 366L250 357 253.4 353.6C253.779 353.232 253.995 352.728 254 352.2L254 351 267 351C268.657 351 270 349.657 270 348 270 346.343 268.657 345 267 345ZM205 349C204.448 349 204 348.552 204 348 204 347.448 204.448 347 205 347L218 347 218 349ZM237 419.333 236 420.667 235 419.333 235 410 237 410ZM233 408 233 406 239 406 239 408ZM228 404 228 402.828 229.414 401.414 230 400.828 230 379.172 229.414 378.586 226 375.172 226 368 246 368 246 375.172 242.586 378.586 242 379.172 242 400.828 242.586 401.414 244 402.828 244 404ZM224 366 224 356.172 223.414 355.586 220 352.2 220.014 343.814 223.414 340.414 224 339.828 224 339C223.97 338.478 224.369 338.03 224.891 338 224.927 337.998 224.964 337.998 225 338L247 338C247.522 337.97 247.97 338.369 248 338.891 248.002 338.927 248.002 338.964 248 339L248 339.828 248.586 340.414 252 343.8 251.986 352.186 248.586 355.586 248 356.172 248 366ZM267 349 254 349 254 347 267 347C267.552 347 268 347.448 268 348 268 348.552 267.552 349 267 349Z"/><path d="M245 345 227 345C226.448 345 226 345.448 226 346 226 346.552 226.448 347 227 347L245 347C245.552 347 246 346.552 246 346 246 345.448 245.552 345 245 345Z"/><path d="M245 351 227 351C226.448 351 226 351.448 226 352 226 352.552 226.448 353 227 353L245 353C245.552 353 246 352.552 246 352 246 351.448 245.552 351 245 351Z"/><path d="M245 357 227 357C226.448 357 226 357.448 226 358 226 358.552 226.448 359 227 359L245 359C245.552 359 246 358.552 246 358 246 357.448 245.552 357 245 357Z"/></g></svg>