<svg width="96" height="96" xmlns="http://www.w3.org/2000/svg" xmlns:xlink="http://www.w3.org/1999/xlink" xml:space="preserve" overflow="hidden"><g transform="translate(-628 -332)"><path d="M717.26 346.624C718.31 345.437 718.567 343.042 715.827 340.195 714.664 338.889 713.029 338.099 711.283 338 710.508 337.963 709.749 338.227 709.165 338.738L678.879 367.006 675.835 370.035 656.389 390.222C655.633 390.997 654.904 391.797 654.202 392.622L645.559 402.374 642.859 405.779 635.679 415.167C635.399 415.669 635.505 416.299 635.934 416.682L633.659 420.382C633.395 420.799 633.46 421.345 633.815 421.688 634.011 421.886 634.277 421.998 634.556 422 634.757 421.999 634.953 421.942 635.123 421.834L638.787 419.534C639.043 419.788 639.386 419.935 639.747 419.946 639.938 419.949 640.126 419.894 640.285 419.787L649.748 412.671 653.17 409.988 662.922 401.344C663.747 400.643 664.547 399.914 665.322 399.157L685.511 379.71 688.541 376.669 712.5 351.6 712.755 351.333 713.544 352.122C714.325 352.903 714.325 354.169 713.544 354.95L695.704 372.79C695.308 373.175 695.299 373.808 695.684 374.204 696.069 374.6 696.702 374.609 697.098 374.224 697.106 374.216 697.114 374.208 697.122 374.2L714.962 356.36C716.523 354.798 716.523 352.266 714.962 350.704L714.141 349.883 715.259 348.714ZM640.026 417.479 637.988 415.44 644.424 407.023 645.007 406.288 649.244 410.524 648.544 411.071ZM663.926 397.724C663.187 398.445 662.413 399.151 661.595 399.847L651.888 408.447 650.828 409.278 646.258 404.708 647.091 403.658 655.724 393.916C656.395 393.128 657.1 392.354 657.824 391.607L677.246 371.452 677.961 370.741 684.805 377.585 684.123 378.27ZM687.126 375.257 686.218 376.169 679.379 369.331 680.268 368.447 710.53 340.2 710.548 340.183 710.573 340.158C710.789 340.038 711.036 339.983 711.283 340 712.479 340.116 713.587 340.682 714.383 341.582 716.033 343.297 716.262 344.692 715.776 345.282L713.81 347.34 711.055 350.221Z"/></g></svg>