<svg width="96" height="96" xmlns="http://www.w3.org/2000/svg" xmlns:xlink="http://www.w3.org/1999/xlink" xml:space="preserve" overflow="hidden"><g transform="translate(-540 -332)"><path d="M613.489 374.707 614.903 373.293 609.11 367.5 614.903 361.707 613.489 360.293 607.696 366.086 601.903 360.293 600.489 361.707 606.282 367.5 600.489 373.293 601.903 374.707 607.696 368.914 613.489 374.707Z"/><path d="M597.624 367.565C598.278 367.63 598.925 367.758 599.555 367.946L600.186 365.968 597.841 365.576Z"/><path d="M582.937 398.314 582.995 400.314C584.062 400.283 585.095 400.219 586.06 400.124L585.86 398.134C584.943 398.223 583.958 398.284 582.937 398.314Z"/><path d="M576.9 400.175C577.933 400.246 578.956 400.294 579.941 400.318L579.99 398.318C578.955 398.293 577.961 398.243 577.037 398.18Z"/><path d="M586.886 374.954C587.402 375.939 588.078 376.831 588.886 377.595L590.315 376.195C589.666 375.583 589.118 374.871 588.691 374.088Z"/><path d="M588.892 371.53C589.255 370.946 589.681 370.404 590.163 369.914L588.745 368.5C588.158 369.096 587.64 369.757 587.2 370.468 587.045 370.712 586.909 370.967 586.794 371.232L588.628 372.032C588.703 371.858 588.791 371.69 588.892 371.53Z"/><path d="M594.879 367.6 594.598 365.62C593.502 365.771 592.436 366.093 591.439 366.573L592.316 368.373C593.125 367.984 593.99 367.723 594.879 367.6Z"/><path d="M598.133 385.68C597.736 384.681 597.228 383.73 596.617 382.845L594.965 383.971C595.491 384.732 595.929 385.551 596.271 386.411Z"/><path d="M570.832 399.5C570.88 399.508 572.032 399.7 573.868 399.9L574.087 397.911C572.315 397.717 571.178 397.526 571.166 397.524Z"/><path d="M588.741 397.721 589.124 399.685C590.153 399.489 591.168 399.222 592.16 398.885L591.506 396.994C590.602 397.301 589.679 397.544 588.741 397.721Z"/><path d="M594.008 395.823 595.076 397.514C596.037 396.922 596.877 396.155 597.553 395.251L595.936 394.073C595.409 394.773 594.755 395.367 594.008 395.823Z"/><path d="M592.455 378.24 591.086 379.7C591.876 380.441 592.533 381.075 593.174 381.762L594.637 380.4C593.919 379.626 593.163 378.905 592.455 378.24Z"/><path d="M596.937 389.057C596.986 389.489 597.01 389.923 597.011 390.357 597.011 390.551 597.006 390.748 596.996 390.949 596.983 391.219 596.954 391.488 596.908 391.755L598.879 392.097C598.939 391.75 598.977 391.399 598.994 391.047 599.006 390.813 599.011 390.584 599.011 390.357 599.011 389.845 598.982 389.334 598.923 388.826Z"/><path d="M574.733 374 576.733 374 576.733 371 580.933 371 575.733 358 570.533 371 574.733 371ZM575.733 363.386 577.979 369 573.488 369Z"/><path d="M612.336 392.039 614.092 392.039 609.857 382 605.622 392.039 607.378 392.039 604.524 398 608.856 398 608.856 401 610.856 401 610.856 398 615.19 398ZM609.857 387.145 611.078 390.039 608.636 390.039ZM607.7 396 609.183 392.9 609.858 391.491 610.533 392.9 612.015 396Z"/><path d="M581 387.5 578 380 573.6 391 577 391 577 393 579 393 579 391 583 391 583 393 585 393 585 391 588.4 391 584 380ZM579 389 576.553 389 578 385.385 579.446 389ZM585 389 582.553 389 584 385.385 585.446 389Z"/><path d="M618.445 350 565 350 565 340 557 340C553.688 340.004 551.004 342.688 551 346L551 404C551.004 407.312 553.688 409.996 557 410L611 410 611 420 619 420C622.312 419.996 624.996 417.312 625 414L625 356C624.838 352.537 621.909 349.856 618.445 350ZM553 346C553 343.791 554.791 342 557 342L563 342 563 398 557 398C555.523 397.999 554.099 398.544 553 399.531ZM553 404C553 401.791 554.791 400 557 400L565 400 565 352 618.445 352C620.803 351.859 622.835 353.643 623 356L623 408 557 408C554.791 408 553 406.209 553 404ZM623 414C623 416.209 621.209 418 619 418L613 418 613 410 623 410Z"/></g></svg>