<svg width="96" height="96" xmlns="http://www.w3.org/2000/svg" xmlns:xlink="http://www.w3.org/1999/xlink" xml:space="preserve" overflow="hidden"><g transform="translate(-364 -332)"><path d="M433 417.977 433 348 428 348 428 342 396 342 396 348 391 348 391 417.977 384 417.977 384 419.977 440 419.977 440 417.977ZM398 344 426 344 426 348 398 348ZM393 350 431 350 431 417.977 414 417.977 414 407 410 407 410 417.977 393 417.977Z"/><path d="M400 377 404 377 404 383 400 383Z"/><path d="M400 367 404 367 404 373 400 373Z"/><path d="M400 387 404 387 404 393 400 393Z"/><path d="M400 397 404 397 404 403 400 403Z"/><path d="M410 377 414 377 414 383 410 383Z"/><path d="M410 397 414 397 414 403 410 403Z"/><path d="M420 407 424 407 424 413 420 413Z"/><path d="M420 357 424 357 424 363 420 363Z"/><path d="M410 387 414 387 414 393 410 393Z"/><path d="M410 367 414 367 414 373 410 373Z"/><path d="M410 357 414 357 414 363 410 363Z"/><path d="M400 357 404 357 404 363 400 363Z"/><path d="M400 407 404 407 404 413 400 413Z"/><path d="M420 377 424 377 424 383 420 383Z"/><path d="M420 387 424 387 424 393 420 393Z"/><path d="M420 397 424 397 424 403 420 403Z"/><path d="M420 367 424 367 424 373 420 373Z"/></g></svg>