<svg width="96" height="96" xmlns="http://www.w3.org/2000/svg" xmlns:xlink="http://www.w3.org/1999/xlink" xml:space="preserve" overflow="hidden"><g transform="translate(-11 -332)"><path d="M82.005 410 23.005 410C20.7959 410 19.005 408.209 19.005 406 19.005 403.791 20.7959 402 23.005 402L31.005 402 31.005 360 80.405 360 82.405 358 31.005 358 31.005 348 23.005 348C19.6929 348.004 17.0089 350.688 17.005 354L17.005 406C17.0089 409.312 19.6929 411.996 23.005 412L84.005 412 84.005 377.482 82.005 379.482ZM19.005 354C19.005 351.791 20.7959 350 23.005 350L29.005 350 29.005 400 23.005 400C21.5282 399.999 20.1033 400.545 19.005 401.532Z"/><path d="M104.414 350.02 100.914 346.52C100.154 345.744 98.9086 345.731 98.1324 346.491 98.1225 346.5 98.1127 346.51 98.103 346.52L72.572 372.1 72.436 372.418 70.261 379.139 56.838 366.348 37.614 384.578 42.044 389.008 42.044 402 55.044 402 55.044 390.542 58.544 390.542 58.544 402 71.544 402 71.544 386.942 56.794 372.93 42.435 386.571 40.48 384.616 56.834 369.107 69.7 381.367 78.515 378.497 78.925 378.323 104.365 352.782C105.14 352.101 105.216 350.921 104.535 350.146 104.497 350.102 104.456 350.06 104.414 350.02ZM44.044 387.8 56.794 375.688 69.544 387.8 69.544 400 60.544 400 60.544 388.542 53.044 388.542 53.044 400 44.044 400ZM78.2 376.221 77.848 376.573 73.671 377.951 72.992 377.272 74.363 373.138 74.772 372.728C75.175 372.483 75.6372 372.352 76.109 372.35 76.7786 372.35 77.4202 372.619 77.89 373.096 78.7421 373.922 78.8732 375.243 78.2 376.221ZM98.142 356.275 80.517 373.9C80.1336 372.168 78.7739 370.82 77.039 370.452L94.683 352.766 95.017 352.431 98.489 355.9ZM99.866 354.452 96.431 351.017 99.508 347.942 102.941 351.377Z"/></g></svg>