<svg width="96" height="96" xmlns="http://www.w3.org/2000/svg" xmlns:xlink="http://www.w3.org/1999/xlink" xml:space="preserve" overflow="hidden"><g transform="translate(-100 -332)"><path d="M161 362 112 362 112 412 184 412 184 374 161 374ZM159 374 137 374 137 364 159 364ZM147 376 147 386 125 386 125 376ZM137 398 137 388 159 388 159 398ZM135 388 135 398 114 398 114 388ZM147 400 147 410 125 410 125 400ZM149 400 171 400 171 410 149 410ZM161 398 161 388 182 388 182 398ZM149 386 149 376 171 376 171 386ZM114 364 135 364 135 374 114 374ZM123 376 123 386 114 386 114 376ZM114 400 123 400 123 410 114 410ZM173 410 173 400 182 400 182 410ZM182 386 173 386 173 376 182 376Z"/><path d="M185.467 350.747 180.805 339.69 158.69 349.014 163.352 360.071ZM179.738 342.31 182.848 349.682 164.418 357.451 161.31 350.08Z"/></g></svg>