<svg width="96" height="96" xmlns="http://www.w3.org/2000/svg" xmlns:xlink="http://www.w3.org/1999/xlink" xml:space="preserve" overflow="hidden"><g transform="translate(-805 -332)"><path d="M825.81 376.971C826.67 375.638 826.825 373.97 826.224 372.502 825.435 370.66 823.702 370.373 822.253 369.522 820.592 368.655 819.609 366.881 819.753 365.013 815.8 367.354 815.77 372.658 817.217 376.19 817.793 377.582 818.982 378.629 820.436 379.025L823.184 387.319 833.963 411.55C834.362 412.434 835.243 413.002 836.213 413 836.59 412.997 836.962 412.925 837.313 412.787 838.649 412.291 839.337 410.812 838.856 409.471L829.612 384.689ZM827.757 385.436 828.195 386.611 825.537 387.7 825.047 386.6 824.875 386.081 827.537 384.991ZM836.577 410.922C836.177 411.074 835.914 411.007 835.785 410.722L826.35 389.522 828.894 388.48 836.994 410.188C837.072 410.505 836.889 410.827 836.577 410.922ZM826.65 383.192 824.25 384.177 822.581 379.129C823.201 379.03 823.792 378.799 824.315 378.451ZM819.068 375.432C818.222 373.399 818.137 371.129 818.826 369.038 819.443 369.974 820.285 370.74 821.275 371.267 821.723 371.527 822.175 371.736 822.575 371.921 823.685 372.435 824.129 372.686 824.375 373.26 824.978 374.718 824.285 376.389 822.827 376.992 822.483 377.134 822.114 377.208 821.742 377.209 820.575 377.207 819.521 376.508 819.068 375.432Z"/><path d="M824.011 412.943 824.011 397.022C824.027 396.31 824.155 395.605 824.389 394.932L823.326 392.538C822.497 393.881 822.043 395.422 822.011 397L822.011 414.035 822.456 414.335C827.133 417.453 840.284 419.009 853.329 419.009 856.015 419.009 858.691 418.94 861.293 418.809 860.513 418.25 859.779 417.628 859.1 416.949 845.192 417.439 829.5 416.105 824.011 412.943Z"/><path d="M887.692 405.858C886.585 405.858 885.646 406.516 885.646 407.295 885.646 408.074 886.546 408.731 887.692 408.731 888.838 408.731 889.748 408.074 889.748 407.295 889.748 406.516 888.8 405.858 887.692 405.858Z"/><path d="M885.646 410.374C884.529 410.374 883.59 411.031 883.59 411.81 883.59 412.589 884.49 413.246 885.646 413.246 886.802 413.246 887.692 412.589 887.692 411.81 887.692 411.031 886.763 410.374 885.646 410.374Z"/><path d="M875.376 394C870.067 394 867.012 395.147 866.035 397.505 865.455 399.037 865.823 400.767 866.977 401.93L867.863 402.816 864.473 401.351C863.725 401.013 862.916 400.831 862.095 400.818 860.264 400.829 858.607 401.908 857.857 403.578 857.259 404.799 856.948 406.14 856.947 407.5 856.947 415.07 865.042 421 875.376 421 885.71 421 893.8 415.071 893.8 407.5 893.8 400.057 885.537 394 875.376 394ZM875.376 419C866.3 419 858.947 413.866 858.947 407.5 858.947 405.735 859.728 402.818 862.095 402.818 862.643 402.832 863.182 402.957 863.679 403.187L868.805 405.4C868.986 405.48 869.182 405.522 869.38 405.523 870.331 405.441 871.036 404.604 870.955 403.652 870.92 403.243 870.74 402.859 870.447 402.57L868.391 400.514C867.528 399.653 866.054 396 875.376 396 884.416 396 891.8 401.136 891.8 407.5 891.8 413.864 884.454 419 875.376 419Z"/><path d="M881.121 398.874C880.013 398.874 879.075 399.531 879.075 400.31 879.075 401.089 879.975 401.746 881.121 401.746 882.267 401.746 883.177 401.089 883.177 400.31 883.177 399.531 882.229 398.874 881.121 398.874Z"/><path d="M885.646 404.629C886.754 404.629 887.692 403.962 887.692 403.183 887.692 402.404 886.792 401.746 885.646 401.746 884.5 401.746 883.59 402.394 883.59 403.183 883.59 403.972 884.538 404.629 885.646 404.629Z"/><path d="M875.376 414.073C874.259 414.073 873.32 414.73 873.32 415.509 873.32 416.288 874.22 416.945 875.376 416.945 876.532 416.945 877.432 416.288 877.432 415.509 877.432 414.73 876.493 414.073 875.376 414.073Z"/><path d="M869.621 413.246C868.513 413.246 867.575 413.894 867.575 414.683 867.575 415.472 868.475 416.129 869.621 416.129 870.767 416.129 871.677 415.462 871.677 414.683 871.677 413.904 870.729 413.246 869.621 413.246Z"/><path d="M881.121 412.843C880.013 412.843 879.075 413.5 879.075 414.279 879.075 415.058 879.975 415.715 881.121 415.715 882.267 415.715 883.177 415.058 883.177 414.279 883.177 413.5 882.229 412.843 881.121 412.843Z"/><path d="M867.624 385.722C871.934 387.269 876.013 389.028 879.387 391.788 879.635 391.987 879.869 392.203 880.087 392.435 881.081 392.611 882.064 392.847 883.03 393.142 882.451 392.008 881.632 391.013 880.63 390.227 877.002 387.259 872.692 385.41 868.158 383.789L863.242 381.771C862.49 381.465 862 380.733 862.002 379.921L862.002 376.974C865.778 374.151 868.005 369.715 868.01 365L868.01 363.846 869.41 364.62C869.926 364.786 870.48 364.511 870.66 364L870.84 363.32C871.749 363.839 872.763 364.148 873.807 364.225 875.149 364.225 875.719 363.316 876.03 362.08 876.68 359.47 867.19 351.58 859.25 347.09 858.91 346.9 858.57 346.73 858.25 346.56 858.874 346.148 859.546 345.812 860.25 345.56 860.773 345.381 861.051 344.812 860.872 344.29 860.733 343.886 860.353 343.614 859.926 343.614 859.836 343.614 859.747 343.626 859.66 343.65 858.373 344.08 857.184 344.76 856.16 345.65 854.235 345.003 852.216 344.682 850.185 344.701 846.715 344.701 843.623 345.49 840.943 345.49 840.773 345.49 840.606 345.49 840.443 345.48 839.6 345.446 838.855 345.422 838.193 345.422 835.539 345.422 834.225 345.801 833.353 347.41 831.973 349.88 833.803 353.67 836.433 354.59L836.263 355.28C836.149 355.763 836.411 356.256 836.876 356.431L832.276 361.489C831.905 361.898 831.935 362.53 832.344 362.902 832.478 363.023 832.642 363.107 832.82 363.142 833.834 363.337 834.864 363.432 835.896 363.426 836.604 363.424 837.31 363.385 838.014 363.31L838.014 365C838.016 369.708 840.234 374.141 844 376.967L844 379.921C844.002 380.733 843.511 381.465 842.759 381.771L837.8 383.809C835.9 384.49 834.039 385.209 832.254 386.037L832.954 387.922C834.695 387.108 836.52 386.397 838.387 385.722L841.006 384.652 852.346 394.747C852.725 395.085 853.297 395.085 853.676 394.747L865 384.654ZM862.488 383.622 862.944 383.809 853.011 392.662 843.065 383.809 843.52 383.622C845.023 383.008 846.004 381.544 846 379.921L846 378.254C850.379 380.581 855.627 380.581 860.006 378.254L860.006 379.917C860 381.543 860.982 383.009 862.488 383.622ZM866.01 365C866.01 372.18 860.19 378 853.01 378 845.83 378 840.01 372.18 840.01 365L840.01 363.013C841.383 362.747 842.727 362.353 844.026 361.836 843.935 362.381 844.304 362.896 844.849 362.987 844.903 362.995 844.957 363 845.012 363 849.078 363 854.327 360.832 857.379 358.724 859.766 359.538 862.078 360.561 864.286 361.779L866.01 362.735ZM857.31 348.325 857.659 348.508C857.859 348.613 858.066 348.72 858.259 348.83 866.34 353.4 873.446 359.817 874.036 361.775 873.995 361.932 873.935 362.082 873.856 362.224L873.8 362.224C873.066 362.142 872.359 361.903 871.725 361.524 870.825 361.075 869.732 361.364 869.172 362.199L865.252 360.025C858.56 356.321 851.038 354.375 843.39 354.37 843.004 354.37 842.618 354.37 842.236 354.385L838.42 354.473C838.374 353.667 837.848 352.968 837.086 352.7 836.159 352.279 835.445 351.496 835.113 350.533 834.8 349.844 834.796 349.053 835.104 348.361 835.404 347.815 835.614 347.42 838.186 347.42 838.875 347.42 839.669 347.449 840.355 347.476 840.548 347.484 840.742 347.488 840.939 347.488 842.373 347.454 843.803 347.33 845.221 347.115 846.864 346.87 848.521 346.731 850.181 346.699 851.992 346.681 853.793 346.965 855.51 347.541ZM839.551 356.453 842.286 356.39C842.655 356.38 843.024 356.376 843.393 356.376 847.265 356.381 851.118 356.909 854.849 357.944 852.295 359.41 849.499 360.407 846.593 360.887L846.908 360.169C847.13 359.664 846.901 359.073 846.395 358.851 846.1 358.721 845.76 358.742 845.483 358.906 842.304 360.692 838.691 361.558 835.048 361.406Z"/></g></svg>